<svg xmlns="http://www.w3.org/2000/svg" xmlns:xlink="http://www.w3.org/1999/xlink" width="500" zoomAndPan="magnify" viewBox="0 0 375 374.999991" height="500" preserveAspectRatio="xMidYMid meet" version="1.0"><defs><g/><clipPath id="d2abff3aa5"><path d="M 146.199219 126 L 176 126 L 176 169 L 146.199219 169 Z M 146.199219 126 " clip-rule="nonzero"/></clipPath><clipPath id="e00b1a8403"><path d="M 199 126 L 228.699219 126 L 228.699219 169 L 199 169 Z M 199 126 " clip-rule="nonzero"/></clipPath><clipPath id="c5a846f6b7"><path d="M 173 115.632812 L 202 115.632812 L 202 180 L 173 180 Z M 173 115.632812 " clip-rule="nonzero"/></clipPath></defs><rect x="-37.5" width="450" fill="#ffffff" y="-37.499999" height="449.999989" fill-opacity="1"/><rect x="-37.5" width="450" fill="#171810" y="-37.499999" height="449.999989" fill-opacity="1"/><path fill="#03fa6e" d="M 172.257812 167.914062 C 171.800781 167.914062 171.351562 167.761719 170.992188 167.476562 L 147.894531 149.300781 C 147.394531 148.910156 147.113281 148.324219 147.113281 147.695312 C 147.113281 147.066406 147.394531 146.480469 147.890625 146.085938 L 170.992188 127.914062 C 171.351562 127.628906 171.800781 127.476562 172.257812 127.476562 C 172.886719 127.476562 173.476562 127.757812 173.863281 128.253906 C 174.203125 128.683594 174.355469 129.222656 174.289062 129.761719 C 174.226562 130.304688 173.953125 130.789062 173.523438 131.128906 L 152.46875 147.695312 L 173.523438 164.257812 C 173.953125 164.601562 174.226562 165.085938 174.289062 165.625 C 174.355469 166.167969 174.203125 166.703125 173.863281 167.136719 C 173.476562 167.628906 172.886719 167.914062 172.257812 167.914062 " fill-opacity="1" fill-rule="nonzero"/><g clip-path="url(#d2abff3aa5)"><path fill="#2a446b" d="M 172.257812 126.605469 C 171.605469 126.605469 170.96875 126.824219 170.457031 127.226562 L 147.355469 145.402344 C 146.644531 145.964844 146.238281 146.796875 146.238281 147.695312 C 146.238281 148.59375 146.648438 149.429688 147.355469 149.988281 L 170.457031 168.164062 C 170.964844 168.5625 171.605469 168.785156 172.257812 168.785156 C 173.160156 168.785156 173.996094 168.378906 174.550781 167.671875 C 175.035156 167.0625 175.246094 166.296875 175.15625 165.523438 C 175.0625 164.75 174.675781 164.058594 174.0625 163.578125 L 153.878906 147.695312 L 174.0625 131.8125 C 174.675781 131.328125 175.0625 130.640625 175.15625 129.867188 C 175.246094 129.09375 175.035156 128.328125 174.550781 127.714844 C 173.996094 127.007812 173.15625 126.605469 172.257812 126.605469 Z M 172.257812 128.347656 C 172.605469 128.347656 172.953125 128.5 173.179688 128.792969 C 173.585938 129.304688 173.496094 130.042969 172.984375 130.445312 L 151.058594 147.695312 L 172.984375 164.945312 C 173.496094 165.347656 173.585938 166.085938 173.179688 166.59375 C 172.953125 166.890625 172.605469 167.042969 172.257812 167.042969 C 172.003906 167.042969 171.75 166.964844 171.53125 166.792969 L 148.429688 148.617188 C 148.148438 148.394531 147.984375 148.054688 147.984375 147.695312 C 147.984375 147.332031 148.148438 146.996094 148.429688 146.773438 L 171.53125 128.597656 C 171.746094 128.425781 172.003906 128.347656 172.257812 128.347656 " fill-opacity="1" fill-rule="nonzero"/></g><path fill="#03fa6e" d="M 202.738281 167.914062 C 202.105469 167.914062 201.523438 167.628906 201.128906 167.136719 C 200.429688 166.25 200.585938 164.960938 201.472656 164.257812 L 222.53125 147.695312 L 201.472656 131.128906 C 200.585938 130.429688 200.429688 129.140625 201.128906 128.253906 C 201.523438 127.757812 202.105469 127.476562 202.738281 127.476562 C 203.195312 127.476562 203.644531 127.628906 204.003906 127.914062 L 227.105469 146.085938 C 227.601562 146.480469 227.882812 147.066406 227.882812 147.695312 C 227.882812 148.324219 227.601562 148.910156 227.101562 149.300781 L 204.003906 167.476562 C 203.644531 167.761719 203.195312 167.914062 202.738281 167.914062 " fill-opacity="1" fill-rule="nonzero"/><g clip-path="url(#e00b1a8403)"><path fill="#2a446b" d="M 202.738281 126.605469 C 201.839844 126.605469 201.003906 127.007812 200.445312 127.714844 C 199.449219 128.980469 199.667969 130.816406 200.933594 131.8125 L 221.117188 147.695312 L 200.933594 163.578125 C 199.667969 164.570312 199.449219 166.410156 200.445312 167.671875 C 201.003906 168.378906 201.839844 168.785156 202.738281 168.785156 C 203.390625 168.785156 204.027344 168.5625 204.539062 168.164062 L 227.640625 149.988281 C 228.351562 149.429688 228.753906 148.59375 228.753906 147.695312 C 228.753906 146.796875 228.351562 145.964844 227.644531 145.402344 L 204.542969 127.226562 C 204.03125 126.824219 203.390625 126.605469 202.738281 126.605469 Z M 202.738281 128.347656 C 202.992188 128.347656 203.25 128.425781 203.464844 128.597656 L 226.566406 146.773438 C 226.847656 146.996094 227.011719 147.332031 227.011719 147.695312 C 227.011719 148.054688 226.847656 148.394531 226.566406 148.617188 L 203.464844 166.792969 C 203.25 166.964844 202.992188 167.042969 202.738281 167.042969 C 202.390625 167.042969 202.042969 166.890625 201.816406 166.59375 C 201.414062 166.085938 201.5 165.347656 202.007812 164.945312 L 223.9375 147.695312 L 202.007812 130.445312 C 201.5 130.042969 201.414062 129.304688 201.816406 128.792969 C 202.042969 128.5 202.394531 128.347656 202.738281 128.347656 " fill-opacity="1" fill-rule="nonzero"/></g><path fill="#03fa6e" d="M 176.019531 178.882812 C 175.765625 178.882812 175.515625 178.835938 175.28125 178.742188 C 174.769531 178.546875 174.367188 178.160156 174.148438 177.664062 C 173.921875 177.160156 173.914062 176.605469 174.109375 176.097656 L 196.671875 117.8125 C 196.972656 117.035156 197.742188 116.507812 198.578125 116.507812 C 198.832031 116.507812 199.082031 116.554688 199.320312 116.648438 C 200.367188 117.054688 200.894531 118.242188 200.488281 119.296875 L 177.929688 177.574219 C 177.625 178.355469 176.855469 178.882812 176.019531 178.882812 " fill-opacity="1" fill-rule="nonzero"/><g clip-path="url(#c5a846f6b7)"><path fill="#2a446b" d="M 198.578125 115.636719 C 197.382812 115.636719 196.289062 116.390625 195.859375 117.5 L 173.296875 175.78125 C 173.019531 176.507812 173.035156 177.300781 173.347656 178.015625 C 173.664062 178.726562 174.238281 179.277344 174.964844 179.554688 C 175.304688 179.6875 175.65625 179.753906 176.019531 179.753906 C 177.214844 179.753906 178.308594 179.003906 178.738281 177.890625 L 201.296875 119.609375 C 201.878906 118.105469 201.132812 116.414062 199.628906 115.835938 C 199.292969 115.703125 198.9375 115.636719 198.578125 115.636719 Z M 198.578125 117.378906 C 198.71875 117.378906 198.863281 117.40625 199.003906 117.457031 C 199.609375 117.691406 199.910156 118.371094 199.675781 118.976562 L 177.113281 177.257812 C 176.933594 177.726562 176.488281 178.011719 176.019531 178.011719 C 175.875 178.011719 175.734375 177.988281 175.59375 177.929688 C 174.988281 177.699219 174.6875 177.015625 174.925781 176.414062 L 197.484375 118.132812 C 197.664062 117.664062 198.105469 117.378906 198.578125 117.378906 " fill-opacity="1" fill-rule="nonzero"/></g><g fill="#ffffff" fill-opacity="1"><g transform="translate(85.144331, 216.116295)"><g><path d="M 7.625 0 L 0.421875 0 L 12.015625 -16.984375 L 0.78125 -33.59375 L 8.453125 -33.59375 L 15.828125 -22.15625 L 23.28125 -33.59375 L 30.6875 -33.59375 L 19.421875 -17.234375 L 31.03125 0 L 23.359375 0 L 15.578125 -12.046875 Z M 7.625 0 "/></g></g></g><g fill="#ffffff" fill-opacity="1"><g transform="translate(115.003469, 216.116295)"><g><path d="M 5.515625 -26.875 C 4.628906 -26.875 3.859375 -27.109375 3.203125 -27.578125 C 2.554688 -28.054688 2.234375 -28.789062 2.234375 -29.78125 C 2.234375 -30.664062 2.539062 -31.363281 3.15625 -31.875 C 3.78125 -32.382812 4.566406 -32.640625 5.515625 -32.640625 C 6.472656 -32.640625 7.253906 -32.382812 7.859375 -31.875 C 8.472656 -31.363281 8.78125 -30.664062 8.78125 -29.78125 C 8.78125 -28.789062 8.460938 -28.054688 7.828125 -27.578125 C 7.191406 -27.109375 6.421875 -26.875 5.515625 -26.875 Z M 8.828125 0 L 2.234375 0 L 2.234375 -23.78125 L 8.828125 -23.78125 Z M 8.828125 0 "/></g></g></g><g fill="#ffffff" fill-opacity="1"><g transform="translate(124.486907, 216.116295)"><g><path d="M 8.828125 0 L 2.234375 0 L 2.234375 -23.53125 C 3.585938 -23.78125 4.929688 -23.992188 6.265625 -24.171875 C 7.609375 -24.347656 8.835938 -24.488281 9.953125 -24.59375 C 11.078125 -24.707031 11.984375 -24.765625 12.671875 -24.765625 C 14.191406 -24.765625 15.578125 -24.523438 16.828125 -24.046875 C 18.085938 -23.566406 19.09375 -22.742188 19.84375 -21.578125 C 20.695312 -22.710938 21.800781 -23.523438 23.15625 -24.015625 C 24.507812 -24.515625 26.039062 -24.765625 27.75 -24.765625 C 29.820312 -24.765625 31.597656 -24.46875 33.078125 -23.875 C 34.554688 -23.28125 35.691406 -22.3125 36.484375 -20.96875 C 37.285156 -19.632812 37.6875 -17.820312 37.6875 -15.53125 L 37.6875 0 L 31.109375 0 L 31.109375 -14.78125 C 31.109375 -16.03125 30.851562 -17.023438 30.34375 -17.765625 C 29.832031 -18.515625 28.757812 -18.890625 27.125 -18.890625 C 25.53125 -18.890625 24.46875 -18.515625 23.9375 -17.765625 C 23.414062 -17.023438 23.15625 -16.03125 23.15625 -14.78125 L 23.15625 0 L 16.609375 0 L 16.609375 -14.78125 C 16.609375 -16.300781 16.226562 -17.363281 15.46875 -17.96875 C 14.707031 -18.582031 13.679688 -18.890625 12.390625 -18.890625 C 11.859375 -18.890625 11.296875 -18.851562 10.703125 -18.78125 C 10.109375 -18.71875 9.484375 -18.613281 8.828125 -18.46875 Z M 8.828125 0 "/></g></g></g><g fill="#ffffff" fill-opacity="1"><g transform="translate(162.835913, 216.116295)"><g><path d="M 26.296875 -11.09375 L 26.296875 -10.515625 L 8.484375 -10.515625 C 8.816406 -9.003906 9.554688 -7.726562 10.703125 -6.6875 C 11.847656 -5.65625 13.320312 -5.140625 15.125 -5.140625 C 16.582031 -5.140625 17.925781 -5.363281 19.15625 -5.8125 C 20.382812 -6.269531 21.425781 -6.804688 22.28125 -7.421875 L 25.140625 -2.3125 C 23.953125 -1.570312 22.515625 -0.894531 20.828125 -0.28125 C 19.148438 0.320312 17.148438 0.625 14.828125 0.625 C 12.179688 0.625 9.867188 0.09375 7.890625 -0.96875 C 5.910156 -2.03125 4.375 -3.515625 3.28125 -5.421875 C 2.195312 -7.328125 1.65625 -9.535156 1.65625 -12.046875 L 1.65625 -12.09375 C 1.65625 -14.582031 2.164062 -16.769531 3.1875 -18.65625 C 4.207031 -20.550781 5.640625 -22.035156 7.484375 -23.109375 C 9.335938 -24.191406 11.523438 -24.734375 14.046875 -24.734375 C 16.585938 -24.734375 18.773438 -24.1875 20.609375 -23.09375 C 22.441406 -22 23.847656 -20.4375 24.828125 -18.40625 C 25.804688 -16.382812 26.296875 -13.945312 26.296875 -11.09375 Z M 14 -19.390625 C 12.5625 -19.390625 11.363281 -18.929688 10.40625 -18.015625 C 9.457031 -17.109375 8.832031 -15.960938 8.53125 -14.578125 L 19.59375 -14.578125 C 19.34375 -15.960938 18.75 -17.109375 17.8125 -18.015625 C 16.875 -18.929688 15.601562 -19.390625 14 -19.390625 Z M 14 -19.390625 "/></g></g></g><g fill="#ffffff" fill-opacity="1"><g transform="translate(189.257682, 216.116295)"><g><path d="M 8.828125 0 L 2.234375 0 L 2.234375 -23.484375 C 3.554688 -23.734375 4.914062 -23.945312 6.3125 -24.125 C 7.707031 -24.300781 9.019531 -24.445312 10.25 -24.5625 C 11.476562 -24.675781 12.492188 -24.734375 13.296875 -24.734375 C 15.253906 -24.734375 17.066406 -24.460938 18.734375 -23.921875 C 20.410156 -23.378906 21.75 -22.4375 22.75 -21.09375 C 23.757812 -19.757812 24.265625 -17.90625 24.265625 -15.53125 L 24.265625 0 L 17.734375 0 L 17.734375 -14.75 C 17.734375 -16.238281 17.332031 -17.289062 16.53125 -17.90625 C 15.726562 -18.53125 14.550781 -18.84375 13 -18.84375 C 12.425781 -18.84375 11.78125 -18.804688 11.0625 -18.734375 C 10.34375 -18.671875 9.597656 -18.570312 8.828125 -18.4375 Z M 8.828125 0 "/></g></g></g><g fill="#ffffff" fill-opacity="1"><g transform="translate(214.22997, 216.116295)"><g><path d="M 14.875 0.65625 C 12.164062 0.65625 9.820312 0.101562 7.84375 -1 C 5.875 -2.101562 4.359375 -3.609375 3.296875 -5.515625 C 2.234375 -7.421875 1.703125 -9.585938 1.703125 -12.015625 L 1.703125 -12.09375 C 1.703125 -14.519531 2.210938 -16.6875 3.234375 -18.59375 C 4.253906 -20.5 5.726562 -22 7.65625 -23.09375 C 9.59375 -24.1875 11.914062 -24.734375 14.625 -24.734375 C 15.394531 -24.734375 16.160156 -24.671875 16.921875 -24.546875 C 17.679688 -24.421875 18.421875 -24.273438 19.140625 -24.109375 L 19.140625 -33.59375 L 25.6875 -33.59375 L 25.6875 -1.65625 C 24 -0.832031 22.328125 -0.242188 20.671875 0.109375 C 19.015625 0.472656 17.082031 0.65625 14.875 0.65625 Z M 14.875 -5.21875 C 15.675781 -5.21875 16.425781 -5.265625 17.125 -5.359375 C 17.832031 -5.460938 18.503906 -5.59375 19.140625 -5.75 L 19.140625 -18.21875 C 18.503906 -18.363281 17.8125 -18.503906 17.0625 -18.640625 C 16.320312 -18.773438 15.59375 -18.84375 14.875 -18.84375 C 12.71875 -18.84375 11.078125 -18.191406 9.953125 -16.890625 C 8.835938 -15.597656 8.28125 -14 8.28125 -12.09375 L 8.28125 -12.015625 C 8.28125 -10.109375 8.835938 -8.5 9.953125 -7.1875 C 11.078125 -5.875 12.71875 -5.21875 14.875 -5.21875 Z M 14.875 -5.21875 "/></g></g></g><g fill="#ffffff" fill-opacity="1"><g transform="translate(240.610317, 216.116295)"><g><path d="M 26.296875 -11.09375 L 26.296875 -10.515625 L 8.484375 -10.515625 C 8.816406 -9.003906 9.554688 -7.726562 10.703125 -6.6875 C 11.847656 -5.65625 13.320312 -5.140625 15.125 -5.140625 C 16.582031 -5.140625 17.925781 -5.363281 19.15625 -5.8125 C 20.382812 -6.269531 21.425781 -6.804688 22.28125 -7.421875 L 25.140625 -2.3125 C 23.953125 -1.570312 22.515625 -0.894531 20.828125 -0.28125 C 19.148438 0.320312 17.148438 0.625 14.828125 0.625 C 12.179688 0.625 9.867188 0.09375 7.890625 -0.96875 C 5.910156 -2.03125 4.375 -3.515625 3.28125 -5.421875 C 2.195312 -7.328125 1.65625 -9.535156 1.65625 -12.046875 L 1.65625 -12.09375 C 1.65625 -14.582031 2.164062 -16.769531 3.1875 -18.65625 C 4.207031 -20.550781 5.640625 -22.035156 7.484375 -23.109375 C 9.335938 -24.191406 11.523438 -24.734375 14.046875 -24.734375 C 16.585938 -24.734375 18.773438 -24.1875 20.609375 -23.09375 C 22.441406 -22 23.847656 -20.4375 24.828125 -18.40625 C 25.804688 -16.382812 26.296875 -13.945312 26.296875 -11.09375 Z M 14 -19.390625 C 12.5625 -19.390625 11.363281 -18.929688 10.40625 -18.015625 C 9.457031 -17.109375 8.832031 -15.960938 8.53125 -14.578125 L 19.59375 -14.578125 C 19.34375 -15.960938 18.75 -17.109375 17.8125 -18.015625 C 16.875 -18.929688 15.601562 -19.390625 14 -19.390625 Z M 14 -19.390625 "/></g></g></g><g fill="#ffffff" fill-opacity="1"><g transform="translate(267.032091, 216.116295)"><g><path d="M 12.140625 0.53125 C 8.515625 0.53125 5.035156 -0.15625 1.703125 -1.53125 L 3.484375 -6.296875 C 4.859375 -5.691406 6.25 -5.25 7.65625 -4.96875 C 9.070312 -4.695312 10.375 -4.5625 11.5625 -4.5625 C 12.96875 -4.5625 14.101562 -4.695312 14.96875 -4.96875 C 15.84375 -5.25 16.28125 -5.816406 16.28125 -6.671875 C 16.28125 -7.304688 16.003906 -7.804688 15.453125 -8.171875 C 14.898438 -8.546875 13.753906 -8.96875 12.015625 -9.4375 L 9.78125 -10.03125 C 7.289062 -10.6875 5.460938 -11.617188 4.296875 -12.828125 C 3.140625 -14.046875 2.5625 -15.640625 2.5625 -17.609375 C 2.5625 -19.816406 3.394531 -21.546875 5.0625 -22.796875 C 6.738281 -24.054688 9.125 -24.6875 12.21875 -24.6875 C 14.007812 -24.6875 15.769531 -24.5 17.5 -24.125 C 19.226562 -23.75 20.695312 -23.242188 21.90625 -22.609375 L 20 -18.015625 C 18.957031 -18.566406 17.785156 -18.96875 16.484375 -19.21875 C 15.191406 -19.46875 14.03125 -19.59375 13 -19.59375 C 11.8125 -19.59375 10.878906 -19.460938 10.203125 -19.203125 C 9.535156 -18.941406 9.203125 -18.476562 9.203125 -17.8125 C 9.203125 -17.207031 9.507812 -16.722656 10.125 -16.359375 C 10.75 -16.003906 11.78125 -15.617188 13.21875 -15.203125 L 14.90625 -14.75 C 17.59375 -14 19.566406 -13.015625 20.828125 -11.796875 C 22.097656 -10.585938 22.734375 -9.046875 22.734375 -7.171875 C 22.734375 -2.035156 19.203125 0.53125 12.140625 0.53125 Z M 12.140625 0.53125 "/></g></g></g><g fill="#03fa6e" fill-opacity="1"><g transform="translate(114.780664, 245.299906)"><g><path d="M 6.90625 0.3125 C 5.644531 0.3125 4.554688 0.0546875 3.640625 -0.453125 C 2.722656 -0.972656 2.015625 -1.675781 1.515625 -2.5625 C 1.023438 -3.445312 0.78125 -4.453125 0.78125 -5.578125 L 0.78125 -5.609375 C 0.78125 -6.742188 1.019531 -7.753906 1.5 -8.640625 C 1.976562 -9.523438 2.664062 -10.21875 3.5625 -10.71875 C 4.457031 -11.226562 5.535156 -11.484375 6.796875 -11.484375 C 7.148438 -11.484375 7.503906 -11.453125 7.859375 -11.390625 C 8.210938 -11.335938 8.554688 -11.269531 8.890625 -11.1875 L 8.890625 -15.59375 L 11.921875 -15.59375 L 11.921875 -0.765625 C 11.140625 -0.378906 10.363281 -0.101562 9.59375 0.0625 C 8.820312 0.226562 7.925781 0.3125 6.90625 0.3125 Z M 6.90625 -2.421875 C 7.28125 -2.421875 7.628906 -2.441406 7.953125 -2.484375 C 8.273438 -2.535156 8.585938 -2.597656 8.890625 -2.671875 L 8.890625 -8.46875 C 8.585938 -8.53125 8.265625 -8.59375 7.921875 -8.65625 C 7.578125 -8.71875 7.238281 -8.75 6.90625 -8.75 C 5.90625 -8.75 5.144531 -8.445312 4.625 -7.84375 C 4.101562 -7.238281 3.84375 -6.492188 3.84375 -5.609375 L 3.84375 -5.578125 C 3.84375 -4.691406 4.101562 -3.941406 4.625 -3.328125 C 5.144531 -2.722656 5.90625 -2.421875 6.90625 -2.421875 Z M 6.90625 -2.421875 "/></g></g></g><g fill="#03fa6e" fill-opacity="1"><g transform="translate(127.03016, 245.299906)"><g><path d="M 12.21875 -5.15625 L 12.21875 -4.890625 L 3.9375 -4.890625 C 4.09375 -4.179688 4.4375 -3.585938 4.96875 -3.109375 C 5.5 -2.628906 6.179688 -2.390625 7.015625 -2.390625 C 7.703125 -2.390625 8.328125 -2.492188 8.890625 -2.703125 C 9.460938 -2.910156 9.945312 -3.15625 10.34375 -3.4375 L 11.671875 -1.078125 C 11.117188 -0.734375 10.453125 -0.421875 9.671875 -0.140625 C 8.890625 0.140625 7.960938 0.28125 6.890625 0.28125 C 5.660156 0.28125 4.582031 0.0351562 3.65625 -0.453125 C 2.738281 -0.941406 2.023438 -1.628906 1.515625 -2.515625 C 1.015625 -3.398438 0.765625 -4.425781 0.765625 -5.59375 L 0.765625 -5.609375 C 0.765625 -6.765625 1 -7.78125 1.46875 -8.65625 C 1.945312 -9.539062 2.613281 -10.234375 3.46875 -10.734375 C 4.332031 -11.234375 5.347656 -11.484375 6.515625 -11.484375 C 7.703125 -11.484375 8.71875 -11.226562 9.5625 -10.71875 C 10.414062 -10.21875 11.070312 -9.492188 11.53125 -8.546875 C 11.988281 -7.609375 12.21875 -6.476562 12.21875 -5.15625 Z M 6.5 -9 C 5.832031 -9 5.273438 -8.785156 4.828125 -8.359375 C 4.390625 -7.941406 4.101562 -7.410156 3.96875 -6.765625 L 9.09375 -6.765625 C 8.976562 -7.410156 8.703125 -7.941406 8.265625 -8.359375 C 7.828125 -8.785156 7.238281 -9 6.5 -9 Z M 6.5 -9 "/></g></g></g><g fill="#03fa6e" fill-opacity="1"><g transform="translate(139.298882, 245.299906)"><g><path d="M 5.640625 0.25 C 3.953125 0.25 2.332031 -0.0703125 0.78125 -0.71875 L 1.609375 -2.921875 C 2.253906 -2.640625 2.90625 -2.429688 3.5625 -2.296875 C 4.21875 -2.171875 4.816406 -2.109375 5.359375 -2.109375 C 6.015625 -2.109375 6.546875 -2.171875 6.953125 -2.296875 C 7.359375 -2.429688 7.5625 -2.695312 7.5625 -3.09375 C 7.5625 -3.394531 7.429688 -3.628906 7.171875 -3.796875 C 6.921875 -3.972656 6.390625 -4.171875 5.578125 -4.390625 L 4.546875 -4.65625 C 3.390625 -4.957031 2.539062 -5.390625 2 -5.953125 C 1.457031 -6.523438 1.1875 -7.265625 1.1875 -8.171875 C 1.1875 -9.203125 1.570312 -10.007812 2.34375 -10.59375 C 3.125 -11.175781 4.234375 -11.46875 5.671875 -11.46875 C 6.503906 -11.46875 7.320312 -11.378906 8.125 -11.203125 C 8.925781 -11.023438 9.609375 -10.789062 10.171875 -10.5 L 9.296875 -8.359375 C 8.804688 -8.617188 8.257812 -8.804688 7.65625 -8.921875 C 7.050781 -9.035156 6.515625 -9.09375 6.046875 -9.09375 C 5.492188 -9.09375 5.054688 -9.03125 4.734375 -8.90625 C 4.421875 -8.789062 4.265625 -8.578125 4.265625 -8.265625 C 4.265625 -7.984375 4.410156 -7.757812 4.703125 -7.59375 C 4.992188 -7.425781 5.472656 -7.25 6.140625 -7.0625 L 6.921875 -6.84375 C 8.171875 -6.5 9.085938 -6.046875 9.671875 -5.484375 C 10.265625 -4.921875 10.5625 -4.203125 10.5625 -3.328125 C 10.5625 -0.941406 8.921875 0.25 5.640625 0.25 Z M 5.640625 0.25 "/></g></g></g><g fill="#03fa6e" fill-opacity="1"><g transform="translate(149.894545, 245.299906)"><g><path d="M 12.21875 -5.15625 L 12.21875 -4.890625 L 3.9375 -4.890625 C 4.09375 -4.179688 4.4375 -3.585938 4.96875 -3.109375 C 5.5 -2.628906 6.179688 -2.390625 7.015625 -2.390625 C 7.703125 -2.390625 8.328125 -2.492188 8.890625 -2.703125 C 9.460938 -2.910156 9.945312 -3.15625 10.34375 -3.4375 L 11.671875 -1.078125 C 11.117188 -0.734375 10.453125 -0.421875 9.671875 -0.140625 C 8.890625 0.140625 7.960938 0.28125 6.890625 0.28125 C 5.660156 0.28125 4.582031 0.0351562 3.65625 -0.453125 C 2.738281 -0.941406 2.023438 -1.628906 1.515625 -2.515625 C 1.015625 -3.398438 0.765625 -4.425781 0.765625 -5.59375 L 0.765625 -5.609375 C 0.765625 -6.765625 1 -7.78125 1.46875 -8.65625 C 1.945312 -9.539062 2.613281 -10.234375 3.46875 -10.734375 C 4.332031 -11.234375 5.347656 -11.484375 6.515625 -11.484375 C 7.703125 -11.484375 8.71875 -11.226562 9.5625 -10.71875 C 10.414062 -10.21875 11.070312 -9.492188 11.53125 -8.546875 C 11.988281 -7.609375 12.21875 -6.476562 12.21875 -5.15625 Z M 6.5 -9 C 5.832031 -9 5.273438 -8.785156 4.828125 -8.359375 C 4.390625 -7.941406 4.101562 -7.410156 3.96875 -6.765625 L 9.09375 -6.765625 C 8.976562 -7.410156 8.703125 -7.941406 8.265625 -8.359375 C 7.828125 -8.785156 7.238281 -9 6.5 -9 Z M 6.5 -9 "/></g></g></g><g fill="#03fa6e" fill-opacity="1"><g transform="translate(162.163269, 245.299906)"><g><path d="M 4.09375 0 L 1.03125 0 L 1.03125 -10.90625 C 1.65625 -11.019531 2.289062 -11.117188 2.9375 -11.203125 C 3.582031 -11.285156 4.1875 -11.351562 4.75 -11.40625 C 5.320312 -11.457031 5.796875 -11.484375 6.171875 -11.484375 C 7.085938 -11.484375 7.929688 -11.359375 8.703125 -11.109375 C 9.484375 -10.859375 10.101562 -10.421875 10.5625 -9.796875 C 11.03125 -9.171875 11.265625 -8.3125 11.265625 -7.21875 L 11.265625 0 L 8.234375 0 L 8.234375 -6.84375 C 8.234375 -7.539062 8.046875 -8.03125 7.671875 -8.3125 C 7.296875 -8.601562 6.753906 -8.75 6.046875 -8.75 C 5.773438 -8.75 5.472656 -8.734375 5.140625 -8.703125 C 4.804688 -8.671875 4.457031 -8.625 4.09375 -8.5625 Z M 4.09375 0 "/></g></g></g><g fill="#03fa6e" fill-opacity="1"><g transform="translate(173.75892, 245.299906)"><g><path d="M 6.09375 -2.15625 L 8.765625 -11.046875 L 11.96875 -11.046875 L 8.1875 0 L 4 0 L 0.234375 -11.046875 L 3.421875 -11.046875 Z M 6.09375 -2.15625 "/></g></g></g><g fill="#03fa6e" fill-opacity="1"><g transform="translate(185.219965, 245.299906)"><g><path d="M 6.90625 0.3125 C 5.707031 0.3125 4.644531 0.0546875 3.71875 -0.453125 C 2.800781 -0.972656 2.082031 -1.675781 1.5625 -2.5625 C 1.039062 -3.457031 0.78125 -4.46875 0.78125 -5.59375 L 0.78125 -5.609375 C 0.78125 -6.742188 1.039062 -7.753906 1.5625 -8.640625 C 2.082031 -9.523438 2.800781 -10.21875 3.71875 -10.71875 C 4.632812 -11.226562 5.695312 -11.484375 6.90625 -11.484375 C 8.113281 -11.484375 9.175781 -11.226562 10.09375 -10.71875 C 11.019531 -10.21875 11.742188 -9.523438 12.265625 -8.640625 C 12.785156 -7.753906 13.046875 -6.742188 13.046875 -5.609375 L 13.046875 -5.59375 C 13.046875 -4.46875 12.785156 -3.457031 12.265625 -2.5625 C 11.742188 -1.675781 11.019531 -0.972656 10.09375 -0.453125 C 9.175781 0.0546875 8.113281 0.3125 6.90625 0.3125 Z M 6.90625 -2.421875 C 7.519531 -2.421875 8.050781 -2.5625 8.5 -2.84375 C 8.957031 -3.125 9.316406 -3.503906 9.578125 -3.984375 C 9.835938 -4.472656 9.96875 -5.007812 9.96875 -5.59375 L 9.96875 -5.640625 C 9.96875 -6.222656 9.84375 -6.75 9.59375 -7.21875 C 9.34375 -7.6875 8.988281 -8.054688 8.53125 -8.328125 C 8.070312 -8.609375 7.53125 -8.75 6.90625 -8.75 C 6.289062 -8.75 5.753906 -8.609375 5.296875 -8.328125 C 4.835938 -8.054688 4.476562 -7.6875 4.21875 -7.21875 C 3.96875 -6.75 3.84375 -6.222656 3.84375 -5.640625 L 3.84375 -5.59375 C 3.84375 -5.007812 3.96875 -4.472656 4.21875 -3.984375 C 4.476562 -3.503906 4.835938 -3.125 5.296875 -2.84375 C 5.765625 -2.5625 6.300781 -2.421875 6.90625 -2.421875 Z M 6.90625 -2.421875 "/></g></g></g><g fill="#03fa6e" fill-opacity="1"><g transform="translate(198.296367, 245.299906)"><g><path d="M 4.09375 0 L 1.03125 0 L 1.03125 -15.59375 L 4.09375 -15.59375 Z M 4.09375 0 "/></g></g></g><g fill="#03fa6e" fill-opacity="1"><g transform="translate(202.699796, 245.299906)"><g><path d="M 6.09375 -2.15625 L 8.765625 -11.046875 L 11.96875 -11.046875 L 8.1875 0 L 4 0 L 0.234375 -11.046875 L 3.421875 -11.046875 Z M 6.09375 -2.15625 "/></g></g></g><g fill="#03fa6e" fill-opacity="1"><g transform="translate(214.160842, 245.299906)"><g><path d="M 12.21875 -5.15625 L 12.21875 -4.890625 L 3.9375 -4.890625 C 4.09375 -4.179688 4.4375 -3.585938 4.96875 -3.109375 C 5.5 -2.628906 6.179688 -2.390625 7.015625 -2.390625 C 7.703125 -2.390625 8.328125 -2.492188 8.890625 -2.703125 C 9.460938 -2.910156 9.945312 -3.15625 10.34375 -3.4375 L 11.671875 -1.078125 C 11.117188 -0.734375 10.453125 -0.421875 9.671875 -0.140625 C 8.890625 0.140625 7.960938 0.28125 6.890625 0.28125 C 5.660156 0.28125 4.582031 0.0351562 3.65625 -0.453125 C 2.738281 -0.941406 2.023438 -1.628906 1.515625 -2.515625 C 1.015625 -3.398438 0.765625 -4.425781 0.765625 -5.59375 L 0.765625 -5.609375 C 0.765625 -6.765625 1 -7.78125 1.46875 -8.65625 C 1.945312 -9.539062 2.613281 -10.234375 3.46875 -10.734375 C 4.332031 -11.234375 5.347656 -11.484375 6.515625 -11.484375 C 7.703125 -11.484375 8.71875 -11.226562 9.5625 -10.71875 C 10.414062 -10.21875 11.070312 -9.492188 11.53125 -8.546875 C 11.988281 -7.609375 12.21875 -6.476562 12.21875 -5.15625 Z M 6.5 -9 C 5.832031 -9 5.273438 -8.785156 4.828125 -8.359375 C 4.390625 -7.941406 4.101562 -7.410156 3.96875 -6.765625 L 9.09375 -6.765625 C 8.976562 -7.410156 8.703125 -7.941406 8.265625 -8.359375 C 7.828125 -8.785156 7.238281 -9 6.5 -9 Z M 6.5 -9 "/></g></g></g><g fill="#03fa6e" fill-opacity="1"><g transform="translate(226.429559, 245.299906)"><g><path d="M 6.90625 0.3125 C 5.644531 0.3125 4.554688 0.0546875 3.640625 -0.453125 C 2.722656 -0.972656 2.015625 -1.675781 1.515625 -2.5625 C 1.023438 -3.445312 0.78125 -4.453125 0.78125 -5.578125 L 0.78125 -5.609375 C 0.78125 -6.742188 1.019531 -7.753906 1.5 -8.640625 C 1.976562 -9.523438 2.664062 -10.21875 3.5625 -10.71875 C 4.457031 -11.226562 5.535156 -11.484375 6.796875 -11.484375 C 7.148438 -11.484375 7.503906 -11.453125 7.859375 -11.390625 C 8.210938 -11.335938 8.554688 -11.269531 8.890625 -11.1875 L 8.890625 -15.59375 L 11.921875 -15.59375 L 11.921875 -0.765625 C 11.140625 -0.378906 10.363281 -0.101562 9.59375 0.0625 C 8.820312 0.226562 7.925781 0.3125 6.90625 0.3125 Z M 6.90625 -2.421875 C 7.28125 -2.421875 7.628906 -2.441406 7.953125 -2.484375 C 8.273438 -2.535156 8.585938 -2.597656 8.890625 -2.671875 L 8.890625 -8.46875 C 8.585938 -8.53125 8.265625 -8.59375 7.921875 -8.65625 C 7.578125 -8.71875 7.238281 -8.75 6.90625 -8.75 C 5.90625 -8.75 5.144531 -8.445312 4.625 -7.84375 C 4.101562 -7.238281 3.84375 -6.492188 3.84375 -5.609375 L 3.84375 -5.578125 C 3.84375 -4.691406 4.101562 -3.941406 4.625 -3.328125 C 5.144531 -2.722656 5.90625 -2.421875 6.90625 -2.421875 Z M 6.90625 -2.421875 "/></g></g></g><g fill="#03fa6e" fill-opacity="1"><g transform="translate(238.679051, 245.299906)"><g><path d="M 6.90625 0.3125 C 5.707031 0.3125 4.644531 0.0546875 3.71875 -0.453125 C 2.800781 -0.972656 2.082031 -1.675781 1.5625 -2.5625 C 1.039062 -3.457031 0.78125 -4.46875 0.78125 -5.59375 L 0.78125 -5.609375 C 0.78125 -6.742188 1.039062 -7.753906 1.5625 -8.640625 C 2.082031 -9.523438 2.800781 -10.21875 3.71875 -10.71875 C 4.632812 -11.226562 5.695312 -11.484375 6.90625 -11.484375 C 8.113281 -11.484375 9.175781 -11.226562 10.09375 -10.71875 C 11.019531 -10.21875 11.742188 -9.523438 12.265625 -8.640625 C 12.785156 -7.753906 13.046875 -6.742188 13.046875 -5.609375 L 13.046875 -5.59375 C 13.046875 -4.46875 12.785156 -3.457031 12.265625 -2.5625 C 11.742188 -1.675781 11.019531 -0.972656 10.09375 -0.453125 C 9.175781 0.0546875 8.113281 0.3125 6.90625 0.3125 Z M 6.90625 -2.421875 C 7.519531 -2.421875 8.050781 -2.5625 8.5 -2.84375 C 8.957031 -3.125 9.316406 -3.503906 9.578125 -3.984375 C 9.835938 -4.472656 9.96875 -5.007812 9.96875 -5.59375 L 9.96875 -5.640625 C 9.96875 -6.222656 9.84375 -6.75 9.59375 -7.21875 C 9.34375 -7.6875 8.988281 -8.054688 8.53125 -8.328125 C 8.070312 -8.609375 7.53125 -8.75 6.90625 -8.75 C 6.289062 -8.75 5.753906 -8.609375 5.296875 -8.328125 C 4.835938 -8.054688 4.476562 -7.6875 4.21875 -7.21875 C 3.96875 -6.75 3.84375 -6.222656 3.84375 -5.640625 L 3.84375 -5.59375 C 3.84375 -5.007812 3.96875 -4.472656 4.21875 -3.984375 C 4.476562 -3.503906 4.835938 -3.125 5.296875 -2.84375 C 5.765625 -2.5625 6.300781 -2.421875 6.90625 -2.421875 Z M 6.90625 -2.421875 "/></g></g></g><g fill="#03fa6e" fill-opacity="1"><g transform="translate(251.755447, 245.299906)"><g><path d="M 4.09375 0 L 1.03125 0 L 1.03125 -10.625 C 1.570312 -10.738281 2.128906 -10.828125 2.703125 -10.890625 C 3.273438 -10.953125 3.8125 -10.992188 4.3125 -11.015625 C 4.8125 -11.035156 5.226562 -11.046875 5.5625 -11.046875 L 7.71875 -11.046875 L 7.71875 -8.234375 L 6.0625 -8.234375 C 5.90625 -8.234375 5.6875 -8.222656 5.40625 -8.203125 C 5.125 -8.179688 4.859375 -8.160156 4.609375 -8.140625 C 4.359375 -8.117188 4.1875 -8.097656 4.09375 -8.078125 Z M 4.09375 0 "/></g></g></g></svg>